<?xml version="1.0" encoding="utf-8"?>
<svg viewBox="0 0 500 500" xmlns="http://www.w3.org/2000/svg">
  <path class="primary" fill-rule="evenodd" clip-rule="evenodd" d="M 345.504 210.463 C 345.712 211.967 345.984 213.423 346.336 214.879 C 346.496 215.599 346.688 216.319 346.88 217.007 C 347.28 218.415 347.744 219.791 348.272 221.151 C 349.056 223.135 349.984 225.071 351.024 226.927 C 351.728 228.127 352.48 229.327 353.28 230.447 C 355.68 233.871 358.544 236.895 361.792 239.423 C 363.984 241.119 366.32 242.575 368.768 243.791 C 370.656 244.719 372.592 245.503 374.592 246.143 C 375.92 246.559 377.296 246.911 378.704 247.199 C 381.568 247.791 384.48 248.079 387.408 248.079 C 410.816 248.079 429.792 228.143 429.792 203.535 C 429.792 178.943 410.816 158.991 387.408 158.991 C 384.48 158.991 381.568 159.279 378.704 159.871 C 377.312 160.143 375.936 160.511 374.592 160.943 C 372.592 161.567 370.656 162.335 368.768 163.263 C 362.64 166.303 357.312 170.879 353.28 176.607 C 352.48 177.759 351.728 178.927 351.024 180.159 C 349.968 181.999 349.056 183.935 348.272 185.935 C 347.76 187.263 347.28 188.655 346.88 190.047 C 346.688 190.767 346.496 191.471 346.336 192.175 C 345.984 193.631 345.712 195.087 345.504 196.591 C 344.88 201.199 344.88 205.855 345.504 210.463 Z M 150.832 210.463 C 150.624 211.967 150.352 213.423 150 214.879 C 149.84 215.599 149.648 216.319 149.456 217.007 C 149.056 218.415 148.592 219.791 148.064 221.151 C 147.28 223.135 146.352 225.071 145.312 226.927 C 144.608 228.127 143.856 229.327 143.056 230.447 C 140.656 233.871 137.792 236.895 134.544 239.423 C 132.352 241.119 130.016 242.575 127.568 243.791 C 125.68 244.719 123.744 245.503 121.744 246.143 C 120.416 246.559 119.04 246.911 117.632 247.199 C 114.768 247.791 111.84 248.079 108.928 248.079 C 85.52 248.079 66.544 228.143 66.544 203.535 C 66.544 178.943 85.52 158.991 108.928 158.991 C 111.856 158.991 114.768 159.279 117.632 159.871 C 119.024 160.143 120.4 160.511 121.744 160.943 C 123.744 161.567 125.68 162.335 127.568 163.263 C 133.696 166.303 139.024 170.879 143.056 176.607 C 143.856 177.759 144.608 178.927 145.312 180.159 C 146.352 181.999 147.28 183.935 148.064 185.935 C 148.576 187.263 149.056 188.655 149.456 190.047 C 149.648 190.767 149.84 191.471 150 192.175 C 150.352 193.631 150.624 195.087 150.832 196.591 C 151.456 201.199 151.456 205.855 150.832 210.463 Z M 469.712 319.135 C 469.2 318.223 468.624 317.231 467.92 316.127 C 467.168 314.943 466.32 313.679 465.344 312.319 C 464.368 310.975 463.28 309.535 462.064 308.047 C 460.848 306.575 459.52 305.039 458.064 303.487 C 452.096 297.135 445.28 291.695 437.824 287.343 C 435.456 285.935 432.96 284.623 430.304 283.375 C 430.224 283.343 430.16 283.311 430.08 283.279 C 400.032 270.287 366.16 270.287 336.096 283.279 C 335.68 283.455 335.28 283.679 334.864 283.887 C 334.192 284.207 333.584 284.559 332.928 284.895 C 333.296 285.119 333.664 285.311 334.032 285.519 C 341.472 289.871 348.544 294.879 355.152 300.495 C 359.472 304.143 363.568 308.063 367.456 312.191 C 369.856 314.735 372.048 317.247 374.048 319.711 C 376.112 322.223 377.904 324.575 379.52 326.815 C 381.168 329.119 382.592 331.263 383.872 333.231 C 385.072 335.135 386.096 336.831 386.976 338.399 C 388.656 341.263 389.904 344.367 390.672 347.615 L 391.008 349.903 L 472.16 349.903 L 472.16 324.031 C 471.456 322.335 470.64 320.703 469.712 319.135 Z M 314.016 173.551 C 313.696 171.183 313.264 168.879 312.72 166.623 C 312.464 165.487 312.16 164.367 311.856 163.247 C 311.216 161.039 310.48 158.879 309.664 156.767 C 308.432 153.647 306.992 150.607 305.344 147.711 C 304.256 145.791 303.072 143.935 301.808 142.143 C 295.472 133.135 287.104 125.935 277.456 121.183 C 274.496 119.727 271.456 118.511 268.32 117.519 C 266.224 116.863 264.064 116.287 261.856 115.839 C 257.344 114.911 252.768 114.447 248.16 114.447 C 210.432 114.447 181.568 144.783 181.568 184.463 C 181.568 224.143 210.432 254.447 248.16 254.447 C 252.768 254.447 257.344 253.983 261.856 253.055 C 264.064 252.607 266.224 252.031 268.32 251.375 C 271.456 250.399 274.496 249.167 277.456 247.711 C 287.104 242.959 295.472 235.759 301.808 226.751 C 303.072 224.975 304.256 223.119 305.344 221.199 C 306.992 218.287 308.432 215.263 309.664 212.127 C 310.48 210.015 311.216 207.839 311.856 205.647 C 312.16 204.527 312.464 203.407 312.72 202.271 C 313.264 200.015 313.696 197.711 314.016 195.343 C 315.008 188.111 315.008 180.783 314.016 173.551 Z M 371.728 346.959 C 370.992 345.615 370.128 344.143 369.136 342.511 C 368.064 340.783 366.832 338.911 365.44 336.911 C 364.048 334.927 362.496 332.799 360.768 330.639 C 359.04 328.479 357.152 326.207 355.056 323.935 C 351.712 320.255 348.176 316.783 344.464 313.535 C 338.736 308.543 332.624 304.079 326.192 300.191 C 322.832 298.159 319.264 296.207 315.488 294.399 C 315.376 294.335 315.28 294.271 315.168 294.223 C 297.632 285.791 275.568 279.903 248.16 279.903 C 220.752 279.903 198.704 285.791 181.168 294.223 C 180.544 294.495 180 294.831 179.392 295.135 C 176.832 296.399 174.368 297.743 172.016 299.103 C 170.72 299.871 169.472 300.623 168.24 301.375 C 162.512 304.991 157.024 309.055 151.856 313.535 C 148.144 316.783 144.608 320.255 141.264 323.935 C 139.184 326.207 137.28 328.463 135.552 330.639 C 133.824 332.831 132.272 334.911 130.88 336.911 C 129.488 338.927 128.272 340.783 127.184 342.511 C 126.192 344.143 125.344 345.615 124.608 346.959 C 124.528 347.055 124.464 347.167 124.416 347.279 C 123.632 348.687 122.992 349.919 122.496 350.927 C 121.488 352.959 121.024 354.111 121.024 354.111 L 121.024 394.447 L 375.296 394.447 L 375.296 354.111 C 374.24 351.647 373.056 349.263 371.728 346.959 Z M 105.472 347.647 C 105.664 346.031 106.176 344.495 106.976 343.119 C 107.6 341.887 108.08 340.399 109.056 338.687 C 110.128 336.815 110.992 335.135 112.176 333.247 C 113.44 331.263 114.8 329.135 116.432 326.863 C 118.08 324.607 119.856 322.207 121.872 319.759 C 123.872 317.295 126.08 314.767 128.496 312.191 C 137.744 302.319 148.256 293.807 159.744 286.863 C 160.944 286.143 162.176 285.423 163.408 284.719 C 162.88 284.447 162.384 284.159 161.824 283.903 C 161.408 283.695 161.008 283.471 160.592 283.279 C 145.776 276.607 129.728 273.295 113.552 273.551 C 97.376 273.295 81.328 276.607 66.512 283.279 C 66.432 283.327 66.368 283.343 66.288 283.391 C 63.632 284.639 61.12 285.951 58.768 287.343 C 54.24 289.983 49.952 293.023 45.936 296.415 C 43.328 298.639 40.848 300.991 38.496 303.487 C 37.04 305.055 35.696 306.575 34.496 308.063 C 33.28 309.535 32.192 310.975 31.216 312.335 C 30.24 313.679 29.376 314.959 28.608 316.143 C 27.92 317.247 27.248 318.239 26.736 319.151 C 25.008 322.143 24.16 324.031 24.16 324.031 L 24.16 349.903 L 105.312 349.903 L 105.472 347.647 Z" style=""/>
</svg>